<svg id="visual" viewBox="0 0 960 650" width="960" height="650" xmlns="http://www.w3.org/2000/svg" xmlns:xlink="http://www.w3.org/1999/xlink" version="1.1"><rect x="0" y="0" width="960" height="650" fill="#001220"></rect><path d="M0 317L26.7 322.5C53.3 328 106.7 339 160 345.7C213.3 352.3 266.7 354.7 320 364.8C373.3 375 426.7 393 480 399.7C533.3 406.3 586.7 401.7 640 389.8C693.3 378 746.7 359 800 349C853.3 339 906.7 338 933.3 337.5L960 337L960 651L933.3 651C906.7 651 853.3 651 800 651C746.7 651 693.3 651 640 651C586.7 651 533.3 651 480 651C426.7 651 373.3 651 320 651C266.7 651 213.3 651 160 651C106.7 651 53.3 651 26.7 651L0 651Z" fill="#fa7268"></path><path d="M0 363L26.7 365.3C53.3 367.7 106.7 372.3 160 379.5C213.3 386.7 266.7 396.3 320 401.2C373.3 406 426.7 406 480 416C533.3 426 586.7 446 640 454.7C693.3 463.3 746.7 460.7 800 460.2C853.3 459.7 906.7 461.3 933.3 462.2L960 463L960 651L933.3 651C906.7 651 853.3 651 800 651C746.7 651 693.3 651 640 651C586.7 651 533.3 651 480 651C426.7 651 373.3 651 320 651C266.7 651 213.3 651 160 651C106.7 651 53.3 651 26.7 651L0 651Z" fill="#fe7c5e"></path><path d="M0 469L26.7 473.2C53.3 477.3 106.7 485.7 160 480.8C213.3 476 266.7 458 320 449.2C373.3 440.3 426.7 440.7 480 440.5C533.3 440.3 586.7 439.7 640 451.2C693.3 462.7 746.7 486.3 800 486.8C853.3 487.3 906.7 464.7 933.3 453.3L960 442L960 651L933.3 651C906.7 651 853.3 651 800 651C746.7 651 693.3 651 640 651C586.7 651 533.3 651 480 651C426.7 651 373.3 651 320 651C266.7 651 213.3 651 160 651C106.7 651 53.3 651 26.7 651L0 651Z" fill="#ff8855"></path><path d="M0 506L26.7 506C53.3 506 106.7 506 160 502C213.3 498 266.7 490 320 492.5C373.3 495 426.7 508 480 511.7C533.3 515.3 586.7 509.7 640 515.5C693.3 521.3 746.7 538.7 800 535.8C853.3 533 906.7 510 933.3 498.5L960 487L960 651L933.3 651C906.7 651 853.3 651 800 651C746.7 651 693.3 651 640 651C586.7 651 533.3 651 480 651C426.7 651 373.3 651 320 651C266.7 651 213.3 651 160 651C106.7 651 53.3 651 26.7 651L0 651Z" fill="#ff944c"></path><path d="M0 510L26.7 516C53.3 522 106.7 534 160 538.3C213.3 542.7 266.7 539.3 320 538.3C373.3 537.3 426.7 538.7 480 544.2C533.3 549.7 586.7 559.3 640 559.2C693.3 559 746.7 549 800 545C853.3 541 906.7 543 933.3 544L960 545L960 651L933.3 651C906.7 651 853.3 651 800 651C746.7 651 693.3 651 640 651C586.7 651 533.3 651 480 651C426.7 651 373.3 651 320 651C266.7 651 213.3 651 160 651C106.7 651 53.3 651 26.7 651L0 651Z" fill="#ffa143"></path><path d="M0 614L26.7 607.2C53.3 600.3 106.7 586.7 160 582.7C213.3 578.7 266.7 584.3 320 584.2C373.3 584 426.7 578 480 575C533.3 572 586.7 572 640 571.7C693.3 571.3 746.7 570.7 800 572.5C853.3 574.3 906.7 578.7 933.3 580.8L960 583L960 651L933.3 651C906.7 651 853.3 651 800 651C746.7 651 693.3 651 640 651C586.7 651 533.3 651 480 651C426.7 651 373.3 651 320 651C266.7 651 213.3 651 160 651C106.7 651 53.3 651 26.7 651L0 651Z" fill="#fcaf3c"></path></svg>