<svg id="visual" viewBox="0 0 900 675" width="900" height="675" xmlns="http://www.w3.org/2000/svg" xmlns:xlink="http://www.w3.org/1999/xlink" version="1.1"><rect x="0" y="0" width="900" height="675" fill="#001122"></rect><defs><linearGradient id="grad1_0" x1="25%" y1="0%" x2="100%" y2="100%"><stop offset="23.333333333333336%" stop-color="#001122" stop-opacity="1"></stop><stop offset="76.66666666666666%" stop-color="#001122" stop-opacity="1"></stop></linearGradient></defs><defs><linearGradient id="grad2_0" x1="0%" y1="0%" x2="75%" y2="100%"><stop offset="23.333333333333336%" stop-color="#001122" stop-opacity="1"></stop><stop offset="76.66666666666666%" stop-color="#001122" stop-opacity="1"></stop></linearGradient></defs><g transform="translate(900, 0)"><path d="M0 450C-30 431.7 -59.9 413.4 -75.7 380.5C-91.4 347.7 -93 300.4 -128.2 309.5C-163.4 318.6 -232.4 384.1 -250 374.2C-267.6 364.2 -234 278.9 -248.9 248.9C-263.8 218.9 -327.4 244.3 -347.6 232.2C-367.8 220.1 -344.6 170.6 -331.7 137.4C-318.7 104.2 -316 87.3 -337.4 67.1C-358.8 46.9 -404.4 23.5 -450 0L0 0Z" fill="#715DF2"></path></g><g transform="translate(0, 675)"><path d="M0 -450C29.1 -442.6 58.2 -435.2 83.7 -420.8C109.2 -406.3 131 -384.9 152.7 -368.6C174.4 -352.4 196.1 -341.3 220 -329.3C243.9 -317.2 270.1 -304.2 277.2 -277.2C284.3 -250.2 272.4 -209.2 275.2 -183.9C278 -158.6 295.6 -148.9 330.7 -137C365.9 -125.1 418.6 -111 441.4 -87.8C464.2 -64.6 457.1 -32.3 450 0L0 0Z" fill="#715DF2"></path></g></svg>