<svg id="visual" viewBox="0 0 900 675" width="900" height="675" xmlns="http://www.w3.org/2000/svg" xmlns:xlink="http://www.w3.org/1999/xlink" version="1.1"><g stroke-width="1" stroke-linejoin="bevel"><path d="M457 383.2L523.3 435.5L498.3 370.2Z" fill="#19435d" stroke="#19435d"></path><path d="M457 383.2L435 424.5L523.3 435.5Z" fill="#277297" stroke="#277297"></path><path d="M435 424.5L505.3 471.9L523.3 435.5Z" fill="#246688" stroke="#246688"></path><path d="M591.6 477.9L573.6 431.5L523.3 435.5Z" fill="#1d4e6b" stroke="#1d4e6b"></path><path d="M523.3 435.5L586.6 385.2L498.3 370.2Z" fill="#0c2435" stroke="#0c2435"></path><path d="M435 424.5L456 500.9L505.3 471.9Z" fill="#00101c" stroke="#00101c"></path><path d="M374.7 366.2L389.7 428.5L435 424.5Z" fill="#00101c" stroke="#00101c"></path><path d="M435 424.5L397.7 474.9L456 500.9Z" fill="#00101c" stroke="#00101c"></path><path d="M573.6 431.5L586.6 385.2L523.3 435.5Z" fill="#112e42" stroke="#112e42"></path><path d="M389.7 428.5L397.7 474.9L435 424.5Z" fill="#297ea6" stroke="#297ea6"></path><path d="M403.7 292.8L374.7 366.2L457 383.2Z" fill="#081a28" stroke="#081a28"></path><path d="M457 383.2L374.7 366.2L435 424.5Z" fill="#19435d" stroke="#19435d"></path><path d="M389.7 428.5L336.4 422.5L397.7 474.9Z" fill="#00101c" stroke="#00101c"></path><path d="M528.3 548.3L591.6 477.9L505.3 471.9Z" fill="#0c2435" stroke="#0c2435"></path><path d="M505.3 471.9L591.6 477.9L523.3 435.5Z" fill="#081a28" stroke="#081a28"></path><path d="M573.6 431.5L625.9 421.5L586.6 385.2Z" fill="#205a7a" stroke="#205a7a"></path><path d="M529.3 292.8L464 290.8L498.3 370.2Z" fill="#00101c" stroke="#00101c"></path><path d="M498.3 370.2L464 290.8L457 383.2Z" fill="#205a7a" stroke="#205a7a"></path><path d="M586.6 385.2L529.3 292.8L498.3 370.2Z" fill="#205a7a" stroke="#205a7a"></path><path d="M591.6 477.9L625.9 421.5L573.6 431.5Z" fill="#205a7a" stroke="#205a7a"></path><path d="M586.6 385.2L577.6 293.8L529.3 292.8Z" fill="#112e42" stroke="#112e42"></path><path d="M436 552.3L528.3 548.3L456 500.9Z" fill="#15384f" stroke="#15384f"></path><path d="M456 500.9L528.3 548.3L505.3 471.9Z" fill="#112e42" stroke="#112e42"></path><path d="M464 290.8L403.7 292.8L457 383.2Z" fill="#15384f" stroke="#15384f"></path><path d="M633.9 305.8L577.6 293.8L586.6 385.2Z" fill="#205a7a" stroke="#205a7a"></path><path d="M496.3 257.5L455 263.5L464 290.8Z" fill="#205a7a" stroke="#205a7a"></path><path d="M403.7 540.3L436 552.3L456 500.9Z" fill="#00101c" stroke="#00101c"></path><path d="M496.3 257.5L464 290.8L529.3 292.8Z" fill="#205a7a" stroke="#205a7a"></path><path d="M464 290.8L455 263.5L403.7 292.8Z" fill="#297ea6" stroke="#297ea6"></path><path d="M316.4 372.2L336.4 422.5L374.7 366.2Z" fill="#1d4e6b" stroke="#1d4e6b"></path><path d="M374.7 366.2L336.4 422.5L389.7 428.5Z" fill="#1d4e6b" stroke="#1d4e6b"></path><path d="M397.7 474.9L403.7 540.3L456 500.9Z" fill="#19435d" stroke="#19435d"></path><path d="M560.6 242.5L496.3 257.5L529.3 292.8Z" fill="#0c2435" stroke="#0c2435"></path><path d="M332.4 550.3L403.7 540.3L397.7 474.9Z" fill="#297ea6" stroke="#297ea6"></path><path d="M528.3 548.3L593.6 534.3L591.6 477.9Z" fill="#205a7a" stroke="#205a7a"></path><path d="M591.6 477.9L630.9 507.9L625.9 421.5Z" fill="#112e42" stroke="#112e42"></path><path d="M691.1 441.5L653.9 371.2L625.9 421.5Z" fill="#0c2435" stroke="#0c2435"></path><path d="M625.9 421.5L653.9 371.2L586.6 385.2Z" fill="#277297" stroke="#277297"></path><path d="M593.6 534.3L630.9 507.9L591.6 477.9Z" fill="#081a28" stroke="#081a28"></path><path d="M309.4 308.8L316.4 372.2L374.7 366.2Z" fill="#19435d" stroke="#19435d"></path><path d="M653.9 371.2L633.9 305.8L586.6 385.2Z" fill="#112e42" stroke="#112e42"></path><path d="M577.6 293.8L560.6 242.5L529.3 292.8Z" fill="#00101c" stroke="#00101c"></path><path d="M655.9 236.5L560.6 242.5L577.6 293.8Z" fill="#081a28" stroke="#081a28"></path><path d="M397.7 187.1L382.7 229.5L455 263.5Z" fill="#19435d" stroke="#19435d"></path><path d="M259.1 440.5L311.4 487.9L336.4 422.5Z" fill="#15384f" stroke="#15384f"></path><path d="M336.4 422.5L311.4 487.9L397.7 474.9Z" fill="#19435d" stroke="#19435d"></path><path d="M630.9 507.9L691.1 441.5L625.9 421.5Z" fill="#15384f" stroke="#15384f"></path><path d="M653.9 371.2L708.1 313.8L633.9 305.8Z" fill="#00101c" stroke="#00101c"></path><path d="M593.6 534.3L627.9 562.3L630.9 507.9Z" fill="#0c2435" stroke="#0c2435"></path><path d="M630.9 507.9L716.1 494.9L691.1 441.5Z" fill="#246688" stroke="#246688"></path><path d="M573.6 610.6L627.9 562.3L593.6 534.3Z" fill="#297ea6" stroke="#297ea6"></path><path d="M573.6 610.6L593.6 534.3L528.3 548.3Z" fill="#246688" stroke="#246688"></path><path d="M382.7 229.5L309.4 308.8L403.7 292.8Z" fill="#112e42" stroke="#112e42"></path><path d="M403.7 292.8L309.4 308.8L374.7 366.2Z" fill="#0c2435" stroke="#0c2435"></path><path d="M316.4 372.2L259.1 440.5L336.4 422.5Z" fill="#19435d" stroke="#19435d"></path><path d="M311.4 487.9L332.4 550.3L397.7 474.9Z" fill="#15384f" stroke="#15384f"></path><path d="M403.7 540.3L395.7 612.6L436 552.3Z" fill="#081a28" stroke="#081a28"></path><path d="M436 552.3L516.3 619.6L528.3 548.3Z" fill="#0c2435" stroke="#0c2435"></path><path d="M441 628.6L516.3 619.6L436 552.3Z" fill="#081a28" stroke="#081a28"></path><path d="M454 177.1L455 263.5L496.3 257.5Z" fill="#00101c" stroke="#00101c"></path><path d="M455 263.5L382.7 229.5L403.7 292.8Z" fill="#246688" stroke="#246688"></path><path d="M516.3 619.6L573.6 610.6L528.3 548.3Z" fill="#297ea6" stroke="#297ea6"></path><path d="M691.1 441.5L701.1 363.2L653.9 371.2Z" fill="#246688" stroke="#246688"></path><path d="M562.6 169.1L499.3 180.1L560.6 242.5Z" fill="#277297" stroke="#277297"></path><path d="M332.4 550.3L395.7 612.6L403.7 540.3Z" fill="#246688" stroke="#246688"></path><path d="M395.7 612.6L441 628.6L436 552.3Z" fill="#19435d" stroke="#19435d"></path><path d="M309.4 308.8L262.1 367.2L316.4 372.2Z" fill="#1d4e6b" stroke="#1d4e6b"></path><path d="M311.4 487.9L246.1 554.3L332.4 550.3Z" fill="#112e42" stroke="#112e42"></path><path d="M262.1 367.2L259.1 440.5L316.4 372.2Z" fill="#277297" stroke="#277297"></path><path d="M655.9 236.5L577.6 293.8L633.9 305.8Z" fill="#15384f" stroke="#15384f"></path><path d="M560.6 242.5L499.3 180.1L496.3 257.5Z" fill="#00101c" stroke="#00101c"></path><path d="M499.3 180.1L454 177.1L496.3 257.5Z" fill="#00101c" stroke="#00101c"></path><path d="M782.4 371.2L708.1 313.8L701.1 363.2Z" fill="#277297" stroke="#277297"></path><path d="M701.1 363.2L708.1 313.8L653.9 371.2Z" fill="#112e42" stroke="#112e42"></path><path d="M454 177.1L397.7 187.1L455 263.5Z" fill="#246688" stroke="#246688"></path><path d="M382.7 229.5L316.4 229.5L309.4 308.8Z" fill="#00101c" stroke="#00101c"></path><path d="M309.4 308.8L243.1 315.8L262.1 367.2Z" fill="#081a28" stroke="#081a28"></path><path d="M708.1 313.8L655.9 236.5L633.9 305.8Z" fill="#1d4e6b" stroke="#1d4e6b"></path><path d="M700.1 534.3L716.1 494.9L630.9 507.9Z" fill="#297ea6" stroke="#297ea6"></path><path d="M691.1 441.5L784.4 420.5L701.1 363.2Z" fill="#081a28" stroke="#081a28"></path><path d="M700.1 534.3L630.9 507.9L627.9 562.3Z" fill="#246688" stroke="#246688"></path><path d="M654.9 598.6L700.1 534.3L627.9 562.3Z" fill="#246688" stroke="#246688"></path><path d="M206.9 430.5L248.1 476.9L259.1 440.5Z" fill="#00101c" stroke="#00101c"></path><path d="M259.1 440.5L248.1 476.9L311.4 487.9Z" fill="#00101c" stroke="#00101c"></path><path d="M332.4 550.3L314.4 600.6L395.7 612.6Z" fill="#1d4e6b" stroke="#1d4e6b"></path><path d="M314.4 185.1L316.4 229.5L382.7 229.5Z" fill="#297ea6" stroke="#297ea6"></path><path d="M573.6 610.6L654.9 598.6L627.9 562.3Z" fill="#277297" stroke="#277297"></path><path d="M641.9 675L654.9 598.6L573.6 610.6Z" fill="#112e42" stroke="#112e42"></path><path d="M641.9 177.1L562.6 169.1L560.6 242.5Z" fill="#297ea6" stroke="#297ea6"></path><path d="M499.3 180.1L443 130.7L454 177.1Z" fill="#246688" stroke="#246688"></path><path d="M246.1 554.3L314.4 600.6L332.4 550.3Z" fill="#00101c" stroke="#00101c"></path><path d="M439 675L508.3 675L441 628.6Z" fill="#15384f" stroke="#15384f"></path><path d="M239.1 261.5L243.1 315.8L309.4 308.8Z" fill="#15384f" stroke="#15384f"></path><path d="M262.1 367.2L206.9 430.5L259.1 440.5Z" fill="#081a28" stroke="#081a28"></path><path d="M441 628.6L508.3 675L516.3 619.6Z" fill="#15384f" stroke="#15384f"></path><path d="M516.3 619.6L573.6 675L573.6 610.6Z" fill="#297ea6" stroke="#297ea6"></path><path d="M439 675L441 628.6L380.7 675Z" fill="#1d4e6b" stroke="#1d4e6b"></path><path d="M380.7 675L441 628.6L395.7 612.6Z" fill="#297ea6" stroke="#297ea6"></path><path d="M508.3 675L573.6 675L516.3 619.6Z" fill="#00101c" stroke="#00101c"></path><path d="M655.9 236.5L641.9 177.1L560.6 242.5Z" fill="#297ea6" stroke="#297ea6"></path><path d="M690.1 174.1L641.9 177.1L655.9 236.5Z" fill="#205a7a" stroke="#205a7a"></path><path d="M248.1 476.9L246.1 554.3L311.4 487.9Z" fill="#00101c" stroke="#00101c"></path><path d="M200.9 478.9L246.1 554.3L248.1 476.9Z" fill="#1d4e6b" stroke="#1d4e6b"></path><path d="M186.9 374.2L206.9 430.5L262.1 367.2Z" fill="#205a7a" stroke="#205a7a"></path><path d="M512.3 107.7L443 130.7L499.3 180.1Z" fill="#0c2435" stroke="#0c2435"></path><path d="M454 177.1L443 130.7L397.7 187.1Z" fill="#297ea6" stroke="#297ea6"></path><path d="M397.7 187.1L314.4 185.1L382.7 229.5Z" fill="#297ea6" stroke="#297ea6"></path><path d="M512.3 107.7L499.3 180.1L562.6 169.1Z" fill="#297ea6" stroke="#297ea6"></path><path d="M314.4 600.6L380.7 675L395.7 612.6Z" fill="#1d4e6b" stroke="#1d4e6b"></path><path d="M315.4 675L380.7 675L314.4 600.6Z" fill="#1d4e6b" stroke="#1d4e6b"></path><path d="M332.4 125.7L314.4 185.1L397.7 187.1Z" fill="#112e42" stroke="#112e42"></path><path d="M316.4 229.5L239.1 261.5L309.4 308.8Z" fill="#297ea6" stroke="#297ea6"></path><path d="M777.4 300.8L723.1 248.5L708.1 313.8Z" fill="#00101c" stroke="#00101c"></path><path d="M708.1 313.8L723.1 248.5L655.9 236.5Z" fill="#19435d" stroke="#19435d"></path><path d="M247.1 193.1L239.1 261.5L316.4 229.5Z" fill="#246688" stroke="#246688"></path><path d="M243.1 315.8L186.9 374.2L262.1 367.2Z" fill="#15384f" stroke="#15384f"></path><path d="M710.1 675L713.1 596.6L654.9 598.6Z" fill="#15384f" stroke="#15384f"></path><path d="M654.9 598.6L713.1 596.6L700.1 534.3Z" fill="#081a28" stroke="#081a28"></path><path d="M700.1 534.3L756.4 555.3L716.1 494.9Z" fill="#205a7a" stroke="#205a7a"></path><path d="M246.1 554.3L274.1 612.6L314.4 600.6Z" fill="#1d4e6b" stroke="#1d4e6b"></path><path d="M206.9 430.5L200.9 478.9L248.1 476.9Z" fill="#246688" stroke="#246688"></path><path d="M246.1 554.3L173.9 615.6L274.1 612.6Z" fill="#246688" stroke="#246688"></path><path d="M783.4 506.9L784.4 420.5L716.1 494.9Z" fill="#205a7a" stroke="#205a7a"></path><path d="M716.1 494.9L784.4 420.5L691.1 441.5Z" fill="#15384f" stroke="#15384f"></path><path d="M784.4 420.5L782.4 371.2L701.1 363.2Z" fill="#081a28" stroke="#081a28"></path><path d="M181.9 304.8L186.9 374.2L243.1 315.8Z" fill="#19435d" stroke="#19435d"></path><path d="M206.9 430.5L130.6 424.5L200.9 478.9Z" fill="#081a28" stroke="#081a28"></path><path d="M713.1 596.6L756.4 555.3L700.1 534.3Z" fill="#1d4e6b" stroke="#1d4e6b"></path><path d="M573.6 104.7L512.3 107.7L562.6 169.1Z" fill="#277297" stroke="#277297"></path><path d="M573.6 675L641.9 675L573.6 610.6Z" fill="#1d4e6b" stroke="#1d4e6b"></path><path d="M713.1 596.6L783.4 600.6L756.4 555.3Z" fill="#277297" stroke="#277297"></path><path d="M782.4 371.2L777.4 300.8L708.1 313.8Z" fill="#1d4e6b" stroke="#1d4e6b"></path><path d="M446 56.4L402.7 113.7L443 130.7Z" fill="#0c2435" stroke="#0c2435"></path><path d="M443 130.7L402.7 113.7L397.7 187.1Z" fill="#112e42" stroke="#112e42"></path><path d="M756.4 555.3L783.4 506.9L716.1 494.9Z" fill="#297ea6" stroke="#297ea6"></path><path d="M766.4 168.1L690.1 174.1L723.1 248.5Z" fill="#246688" stroke="#246688"></path><path d="M723.1 248.5L690.1 174.1L655.9 236.5Z" fill="#15384f" stroke="#15384f"></path><path d="M641.9 177.1L573.6 104.7L562.6 169.1Z" fill="#19435d" stroke="#19435d"></path><path d="M274.1 612.6L315.4 675L314.4 600.6Z" fill="#297ea6" stroke="#297ea6"></path><path d="M657.9 116.7L573.6 104.7L641.9 177.1Z" fill="#112e42" stroke="#112e42"></path><path d="M239.1 261.5L181.9 304.8L243.1 315.8Z" fill="#112e42" stroke="#112e42"></path><path d="M208.9 246.5L181.9 304.8L239.1 261.5Z" fill="#205a7a" stroke="#205a7a"></path><path d="M247.1 193.1L316.4 229.5L314.4 185.1Z" fill="#081a28" stroke="#081a28"></path><path d="M247.1 193.1L208.9 246.5L239.1 261.5Z" fill="#081a28" stroke="#081a28"></path><path d="M275.1 127.7L247.1 193.1L314.4 185.1Z" fill="#1d4e6b" stroke="#1d4e6b"></path><path d="M402.7 113.7L332.4 125.7L397.7 187.1Z" fill="#00101c" stroke="#00101c"></path><path d="M777.4 300.8L770.4 244.5L723.1 248.5Z" fill="#205a7a" stroke="#205a7a"></path><path d="M200.9 478.9L186.9 539.3L246.1 554.3Z" fill="#081a28" stroke="#081a28"></path><path d="M274.1 612.6L241.1 675L315.4 675Z" fill="#1d4e6b" stroke="#1d4e6b"></path><path d="M115.6 496.9L186.9 539.3L200.9 478.9Z" fill="#112e42" stroke="#112e42"></path><path d="M130.6 424.5L206.9 430.5L186.9 374.2Z" fill="#1d4e6b" stroke="#1d4e6b"></path><path d="M693.1 137.7L657.9 116.7L641.9 177.1Z" fill="#1d4e6b" stroke="#1d4e6b"></path><path d="M693.1 137.7L641.9 177.1L690.1 174.1Z" fill="#15384f" stroke="#15384f"></path><path d="M766.4 168.1L693.1 137.7L690.1 174.1Z" fill="#00101c" stroke="#00101c"></path><path d="M641.9 675L710.1 675L654.9 598.6Z" fill="#297ea6" stroke="#297ea6"></path><path d="M756.4 555.3L849.7 551.3L783.4 506.9Z" fill="#0c2435" stroke="#0c2435"></path><path d="M770.4 675L783.4 600.6L713.1 596.6Z" fill="#246688" stroke="#246688"></path><path d="M842.7 442.5L840.7 370.2L784.4 420.5Z" fill="#15384f" stroke="#15384f"></path><path d="M623.9 55.4L565.6 66.4L573.6 104.7Z" fill="#112e42" stroke="#112e42"></path><path d="M573.6 104.7L565.6 66.4L512.3 107.7Z" fill="#277297" stroke="#277297"></path><path d="M512.3 107.7L446 56.4L443 130.7Z" fill="#297ea6" stroke="#297ea6"></path><path d="M266.1 72.4L275.1 127.7L332.4 125.7Z" fill="#112e42" stroke="#112e42"></path><path d="M782.4 371.2L846.7 304.8L777.4 300.8Z" fill="#297ea6" stroke="#297ea6"></path><path d="M777.4 300.8L839.7 263.5L770.4 244.5Z" fill="#112e42" stroke="#112e42"></path><path d="M784.4 420.5L840.7 370.2L782.4 371.2Z" fill="#297ea6" stroke="#297ea6"></path><path d="M842.7 442.5L784.4 420.5L783.4 506.9Z" fill="#112e42" stroke="#112e42"></path><path d="M332.4 125.7L275.1 127.7L314.4 185.1Z" fill="#00101c" stroke="#00101c"></path><path d="M247.1 193.1L207.9 183.1L208.9 246.5Z" fill="#277297" stroke="#277297"></path><path d="M382.7 54.4L332.4 125.7L402.7 113.7Z" fill="#19435d" stroke="#19435d"></path><path d="M845.7 490.9L842.7 442.5L783.4 506.9Z" fill="#1d4e6b" stroke="#1d4e6b"></path><path d="M508.3 42.4L446 56.4L512.3 107.7Z" fill="#246688" stroke="#246688"></path><path d="M112.6 385.2L130.6 424.5L186.9 374.2Z" fill="#1d4e6b" stroke="#1d4e6b"></path><path d="M173.9 615.6L246.1 554.3L186.9 539.3Z" fill="#205a7a" stroke="#205a7a"></path><path d="M173.9 615.6L241.1 675L274.1 612.6Z" fill="#081a28" stroke="#081a28"></path><path d="M209.9 117.7L207.9 183.1L247.1 193.1Z" fill="#0c2435" stroke="#0c2435"></path><path d="M116.6 248.5L121.6 314.8L181.9 304.8Z" fill="#00101c" stroke="#00101c"></path><path d="M121.6 314.8L112.6 385.2L186.9 374.2Z" fill="#277297" stroke="#277297"></path><path d="M849.7 551.3L845.7 490.9L783.4 506.9Z" fill="#277297" stroke="#277297"></path><path d="M900 359.2L846.7 304.8L840.7 370.2Z" fill="#15384f" stroke="#15384f"></path><path d="M820.7 168.1L766.4 168.1L770.4 244.5Z" fill="#19435d" stroke="#19435d"></path><path d="M770.4 244.5L766.4 168.1L723.1 248.5Z" fill="#112e42" stroke="#112e42"></path><path d="M715.1 74.4L623.9 55.4L657.9 116.7Z" fill="#277297" stroke="#277297"></path><path d="M657.9 116.7L623.9 55.4L573.6 104.7Z" fill="#081a28" stroke="#081a28"></path><path d="M565.6 66.4L508.3 42.4L512.3 107.7Z" fill="#0c2435" stroke="#0c2435"></path><path d="M376.7 0L382.7 54.4L446 56.4Z" fill="#00101c" stroke="#00101c"></path><path d="M446 56.4L382.7 54.4L402.7 113.7Z" fill="#19435d" stroke="#19435d"></path><path d="M900 428.5L840.7 370.2L842.7 442.5Z" fill="#00101c" stroke="#00101c"></path><path d="M840.7 370.2L846.7 304.8L782.4 371.2Z" fill="#246688" stroke="#246688"></path><path d="M125.6 544.3L173.9 615.6L186.9 539.3Z" fill="#246688" stroke="#246688"></path><path d="M121.6 314.8L186.9 374.2L181.9 304.8Z" fill="#112e42" stroke="#112e42"></path><path d="M130.6 424.5L115.6 496.9L200.9 478.9Z" fill="#081a28" stroke="#081a28"></path><path d="M116.6 248.5L181.9 304.8L208.9 246.5Z" fill="#246688" stroke="#246688"></path><path d="M715.1 74.4L657.9 116.7L693.1 137.7Z" fill="#1d4e6b" stroke="#1d4e6b"></path><path d="M565.6 66.4L514.3 0L508.3 42.4Z" fill="#1d4e6b" stroke="#1d4e6b"></path><path d="M846.7 304.8L839.7 263.5L777.4 300.8Z" fill="#19435d" stroke="#19435d"></path><path d="M62.3 445.5L115.6 496.9L130.6 424.5Z" fill="#19435d" stroke="#19435d"></path><path d="M710.1 675L770.4 675L713.1 596.6Z" fill="#277297" stroke="#277297"></path><path d="M783.4 600.6L849.7 551.3L756.4 555.3Z" fill="#297ea6" stroke="#297ea6"></path><path d="M115.6 496.9L125.6 544.3L186.9 539.3Z" fill="#205a7a" stroke="#205a7a"></path><path d="M850.7 603.6L849.7 551.3L783.4 600.6Z" fill="#081a28" stroke="#081a28"></path><path d="M900 493.9L900 428.5L842.7 442.5Z" fill="#081a28" stroke="#081a28"></path><path d="M115.6 675L200.9 675L173.9 615.6Z" fill="#081a28" stroke="#081a28"></path><path d="M173.9 615.6L200.9 675L241.1 675Z" fill="#0c2435" stroke="#0c2435"></path><path d="M376.7 0L334.4 44.4L382.7 54.4Z" fill="#297ea6" stroke="#297ea6"></path><path d="M382.7 54.4L334.4 44.4L332.4 125.7Z" fill="#205a7a" stroke="#205a7a"></path><path d="M275.1 127.7L209.9 117.7L247.1 193.1Z" fill="#205a7a" stroke="#205a7a"></path><path d="M266.1 72.4L209.9 117.7L275.1 127.7Z" fill="#205a7a" stroke="#205a7a"></path><path d="M130.6 190.1L116.6 248.5L208.9 246.5Z" fill="#277297" stroke="#277297"></path><path d="M334.4 44.4L266.1 72.4L332.4 125.7Z" fill="#1d4e6b" stroke="#1d4e6b"></path><path d="M759.4 104.7L715.1 74.4L693.1 137.7Z" fill="#19435d" stroke="#19435d"></path><path d="M759.4 104.7L693.1 137.7L766.4 168.1Z" fill="#15384f" stroke="#15384f"></path><path d="M130.6 190.1L208.9 246.5L207.9 183.1Z" fill="#297ea6" stroke="#297ea6"></path><path d="M121.6 314.8L73.3 359.2L112.6 385.2Z" fill="#081a28" stroke="#081a28"></path><path d="M820.7 168.1L759.4 104.7L766.4 168.1Z" fill="#277297" stroke="#277297"></path><path d="M841.7 675L850.7 603.6L783.4 600.6Z" fill="#00101c" stroke="#00101c"></path><path d="M900 493.9L842.7 442.5L845.7 490.9Z" fill="#1d4e6b" stroke="#1d4e6b"></path><path d="M839.7 263.5L820.7 168.1L770.4 244.5Z" fill="#081a28" stroke="#081a28"></path><path d="M900 493.9L845.7 490.9L849.7 551.3Z" fill="#0c2435" stroke="#0c2435"></path><path d="M846.7 304.8L900 301.8L839.7 263.5Z" fill="#246688" stroke="#246688"></path><path d="M839.7 263.5L900 180.1L820.7 168.1Z" fill="#1d4e6b" stroke="#1d4e6b"></path><path d="M587.6 0L514.3 0L565.6 66.4Z" fill="#297ea6" stroke="#297ea6"></path><path d="M508.3 42.4L461 0L446 56.4Z" fill="#112e42" stroke="#112e42"></path><path d="M587.6 0L565.6 66.4L623.9 55.4Z" fill="#15384f" stroke="#15384f"></path><path d="M514.3 0L461 0L508.3 42.4Z" fill="#297ea6" stroke="#297ea6"></path><path d="M900 428.5L900 359.2L840.7 370.2Z" fill="#00101c" stroke="#00101c"></path><path d="M47.3 295.8L73.3 359.2L121.6 314.8Z" fill="#1d4e6b" stroke="#1d4e6b"></path><path d="M112.6 385.2L62.3 445.5L130.6 424.5Z" fill="#19435d" stroke="#19435d"></path><path d="M115.6 496.9L63.3 541.3L125.6 544.3Z" fill="#205a7a" stroke="#205a7a"></path><path d="M900 560.3L900 493.9L849.7 551.3Z" fill="#112e42" stroke="#112e42"></path><path d="M120.6 138.7L130.6 190.1L207.9 183.1Z" fill="#112e42" stroke="#112e42"></path><path d="M116.6 248.5L47.3 295.8L121.6 314.8Z" fill="#15384f" stroke="#15384f"></path><path d="M652.9 0L587.6 0L623.9 55.4Z" fill="#081a28" stroke="#081a28"></path><path d="M900 359.2L900 301.8L846.7 304.8Z" fill="#1d4e6b" stroke="#1d4e6b"></path><path d="M461 0L376.7 0L446 56.4Z" fill="#246688" stroke="#246688"></path><path d="M334.4 44.4L302.4 0L266.1 72.4Z" fill="#00101c" stroke="#00101c"></path><path d="M73.3 359.2L62.3 445.5L112.6 385.2Z" fill="#297ea6" stroke="#297ea6"></path><path d="M125.6 544.3L109.6 614.6L173.9 615.6Z" fill="#0c2435" stroke="#0c2435"></path><path d="M63.3 541.3L109.6 614.6L125.6 544.3Z" fill="#15384f" stroke="#15384f"></path><path d="M850.7 603.6L900 560.3L849.7 551.3Z" fill="#112e42" stroke="#112e42"></path><path d="M900 601.6L900 560.3L850.7 603.6Z" fill="#15384f" stroke="#15384f"></path><path d="M770.4 675L841.7 675L783.4 600.6Z" fill="#277297" stroke="#277297"></path><path d="M0 424.5L53.3 480.9L62.3 445.5Z" fill="#297ea6" stroke="#297ea6"></path><path d="M62.3 445.5L53.3 480.9L115.6 496.9Z" fill="#0c2435" stroke="#0c2435"></path><path d="M723.1 0L652.9 0L715.1 74.4Z" fill="#15384f" stroke="#15384f"></path><path d="M715.1 74.4L652.9 0L623.9 55.4Z" fill="#1d4e6b" stroke="#1d4e6b"></path><path d="M820.7 168.1L835.7 115.7L759.4 104.7Z" fill="#1d4e6b" stroke="#1d4e6b"></path><path d="M900 301.8L900 243.5L839.7 263.5Z" fill="#112e42" stroke="#112e42"></path><path d="M53.3 480.9L63.3 541.3L115.6 496.9Z" fill="#15384f" stroke="#15384f"></path><path d="M376.7 0L302.4 0L334.4 44.4Z" fill="#0c2435" stroke="#0c2435"></path><path d="M266.1 72.4L175.9 48.4L209.9 117.7Z" fill="#297ea6" stroke="#297ea6"></path><path d="M209.9 117.7L120.6 138.7L207.9 183.1Z" fill="#19435d" stroke="#19435d"></path><path d="M900 675L900 601.6L850.7 603.6Z" fill="#277297" stroke="#277297"></path><path d="M77.3 174.1L65.3 243.5L116.6 248.5Z" fill="#297ea6" stroke="#297ea6"></path><path d="M73.3 359.2L0 424.5L62.3 445.5Z" fill="#277297" stroke="#277297"></path><path d="M77.3 174.1L116.6 248.5L130.6 190.1Z" fill="#277297" stroke="#277297"></path><path d="M900 132.7L835.7 115.7L820.7 168.1Z" fill="#00101c" stroke="#00101c"></path><path d="M759.4 104.7L760.4 43.4L715.1 74.4Z" fill="#081a28" stroke="#081a28"></path><path d="M65.3 243.5L47.3 295.8L116.6 248.5Z" fill="#081a28" stroke="#081a28"></path><path d="M60.3 627.6L115.6 675L109.6 614.6Z" fill="#00101c" stroke="#00101c"></path><path d="M109.6 614.6L115.6 675L173.9 615.6Z" fill="#1d4e6b" stroke="#1d4e6b"></path><path d="M828.7 53.4L760.4 43.4L759.4 104.7Z" fill="#205a7a" stroke="#205a7a"></path><path d="M175.9 48.4L120.6 138.7L209.9 117.7Z" fill="#246688" stroke="#246688"></path><path d="M900 243.5L900 180.1L839.7 263.5Z" fill="#112e42" stroke="#112e42"></path><path d="M758.4 0L723.1 0L760.4 43.4Z" fill="#0c2435" stroke="#0c2435"></path><path d="M760.4 43.4L723.1 0L715.1 74.4Z" fill="#205a7a" stroke="#205a7a"></path><path d="M758.4 0L760.4 43.4L838.7 0Z" fill="#0c2435" stroke="#0c2435"></path><path d="M120.6 138.7L77.3 174.1L130.6 190.1Z" fill="#277297" stroke="#277297"></path><path d="M0 309.8L0 360.2L47.3 295.8Z" fill="#15384f" stroke="#15384f"></path><path d="M302.4 0L249.1 0L266.1 72.4Z" fill="#19435d" stroke="#19435d"></path><path d="M120.6 138.7L58.3 133.7L77.3 174.1Z" fill="#1d4e6b" stroke="#1d4e6b"></path><path d="M249.1 0L175.9 48.4L266.1 72.4Z" fill="#112e42" stroke="#112e42"></path><path d="M63.3 541.3L60.3 627.6L109.6 614.6Z" fill="#297ea6" stroke="#297ea6"></path><path d="M0 627.6L60.3 627.6L63.3 541.3Z" fill="#246688" stroke="#246688"></path><path d="M841.7 675L900 675L850.7 603.6Z" fill="#246688" stroke="#246688"></path><path d="M0 360.2L0 424.5L73.3 359.2Z" fill="#246688" stroke="#246688"></path><path d="M53.3 480.9L0 503.9L63.3 541.3Z" fill="#1d4e6b" stroke="#1d4e6b"></path><path d="M0 360.2L73.3 359.2L47.3 295.8Z" fill="#277297" stroke="#277297"></path><path d="M0 309.8L47.3 295.8L0 248.5Z" fill="#246688" stroke="#246688"></path><path d="M828.7 53.4L759.4 104.7L835.7 115.7Z" fill="#297ea6" stroke="#297ea6"></path><path d="M900 78.4L828.7 53.4L835.7 115.7Z" fill="#15384f" stroke="#15384f"></path><path d="M900 180.1L900 132.7L820.7 168.1Z" fill="#0c2435" stroke="#0c2435"></path><path d="M0 424.5L0 503.9L53.3 480.9Z" fill="#1d4e6b" stroke="#1d4e6b"></path><path d="M0 248.5L47.3 295.8L65.3 243.5Z" fill="#15384f" stroke="#15384f"></path><path d="M0 503.9L0 533.3L63.3 541.3Z" fill="#205a7a" stroke="#205a7a"></path><path d="M175.9 48.4L125.6 54.4L120.6 138.7Z" fill="#277297" stroke="#277297"></path><path d="M0 188.1L0 248.5L65.3 243.5Z" fill="#246688" stroke="#246688"></path><path d="M128.6 0L125.6 54.4L175.9 48.4Z" fill="#112e42" stroke="#112e42"></path><path d="M0 627.6L52.3 675L60.3 627.6Z" fill="#297ea6" stroke="#297ea6"></path><path d="M60.3 627.6L52.3 675L115.6 675Z" fill="#19435d" stroke="#19435d"></path><path d="M125.6 54.4L58.3 133.7L120.6 138.7Z" fill="#00101c" stroke="#00101c"></path><path d="M249.1 0L180.9 0L175.9 48.4Z" fill="#1d4e6b" stroke="#1d4e6b"></path><path d="M0 188.1L65.3 243.5L77.3 174.1Z" fill="#19435d" stroke="#19435d"></path><path d="M900 132.7L900 78.4L835.7 115.7Z" fill="#1d4e6b" stroke="#1d4e6b"></path><path d="M828.7 53.4L838.7 0L760.4 43.4Z" fill="#00101c" stroke="#00101c"></path><path d="M0 533.3L0 627.6L63.3 541.3Z" fill="#112e42" stroke="#112e42"></path><path d="M0 126.7L0 188.1L58.3 133.7Z" fill="#0c2435" stroke="#0c2435"></path><path d="M58.3 133.7L0 188.1L77.3 174.1Z" fill="#0c2435" stroke="#0c2435"></path><path d="M900 0L838.7 0L828.7 53.4Z" fill="#19435d" stroke="#19435d"></path><path d="M180.9 0L128.6 0L175.9 48.4Z" fill="#19435d" stroke="#19435d"></path><path d="M54.3 46.4L0 126.7L58.3 133.7Z" fill="#1d4e6b" stroke="#1d4e6b"></path><path d="M0 627.6L0 675L52.3 675Z" fill="#0c2435" stroke="#0c2435"></path><path d="M54.3 46.4L58.3 133.7L125.6 54.4Z" fill="#112e42" stroke="#112e42"></path><path d="M128.6 0L54.3 46.4L125.6 54.4Z" fill="#1d4e6b" stroke="#1d4e6b"></path><path d="M900 78.4L900 0L828.7 53.4Z" fill="#19435d" stroke="#19435d"></path><path d="M128.6 0L55.3 0L54.3 46.4Z" fill="#00101c" stroke="#00101c"></path><path d="M54.3 46.4L0 55.4L0 126.7Z" fill="#15384f" stroke="#15384f"></path><path d="M0 0L0 55.4L54.3 46.4Z" fill="#246688" stroke="#246688"></path><path d="M55.3 0L0 0L54.3 46.4Z" fill="#19435d" stroke="#19435d"></path></g></svg>