<svg xmlns="http://www.w3.org/2000/svg" version="1.1" xmlns:xlink="http://www.w3.org/1999/xlink" xmlns:svgjs="http://svgjs.dev/svgjs" width="1000" height="1000" viewBox="0 0 1000 1000"><g transform="matrix(1,0,0,1,-0.14221556886212738,-0.14221556886229791)"><svg viewBox="0 0 334 334" data-background-color="#ed1703" preserveAspectRatio="xMidYMid meet" height="1000" width="1000" xmlns="http://www.w3.org/2000/svg" xmlns:xlink="http://www.w3.org/1999/xlink"><g id="tight-bounds" transform="matrix(1,0,0,1,0.04749999999998522,0.04750000000001364)"><svg viewBox="0 0 333.90454557049503 333.90454557049503" height="333.90454557049503" width="333.90454557049503"><g><svg></svg></g><g><svg viewBox="0 0 333.90454557049503 333.90454557049503" height="333.90454557049503" width="333.90454557049503"><g><path d="M0 166.952c0-92.205 74.747-166.952 166.952-166.952 92.205 0 166.952 74.747 166.953 166.952 0 92.205-74.747 166.952-166.953 166.953-92.205 0-166.952-74.747-166.952-166.953zM166.952 327.306c88.561 0 160.354-71.793 160.354-160.354 0-88.561-71.793-160.354-160.354-160.354-88.561 0-160.354 71.793-160.354 160.354 0 88.561 71.793 160.354 160.354 160.354z" data-fill-palette-color="tertiary" fill="#ffffff" stroke="transparent"></path><ellipse rx="160.27418187383762" ry="160.27418187383762" cx="166.95227278524752" cy="166.95227278524752" fill="#ffffff" stroke="transparent" stroke-width="0" fill-opacity="1" data-fill-palette-color="tertiary"></ellipse></g><g transform="matrix(1,0,0,1,72.95218023683476,71.17305217166896)"><svg viewBox="0 0 188.0001850968255 191.55844122715712" height="191.55844122715712" width="188.0001850968255"><g><svg viewBox="0 0 188.0001850968255 191.55844122715712" height="191.55844122715712" width="188.0001850968255"><g><svg viewBox="0 0 213.1584412271571 217.19286454348432" height="191.55844122715712" width="188.0001850968255"><g transform="matrix(1,0,0,1,0,134.2339036334556)"><svg viewBox="0 0 213.1584412271571 82.95896091002871" height="82.95896091002871" width="213.1584412271571"><g id="textblocktransform"><svg viewBox="0 0 213.1584412271571 82.95896091002871" height="82.95896091002871" width="213.1584412271571" id="textblock"><g><svg viewBox="0 0 213.1584412271571 82.95896091002871" height="82.95896091002871" width="213.1584412271571"><g transform="matrix(1,0,0,1,0,0)"><svg width="213.1584412271571" viewBox="1.350000023841858 -36.5 111 43.20000076293945" height="82.95896091002871" data-palette-color="#ed1703"><path d="M19.45 5.95L3.65 5.95Q2.45 5.95 1.9 5.4 1.35 4.85 1.35 3.65L1.35 3.65 1.35-2.2Q1.35-2.85 1.53-3.3 1.7-3.75 2.05-4.05L2.05-4.05 7.05-8.25Q4.4-9.05 2.88-10.98 1.35-12.9 1.35-16.5L1.35-16.5 1.35-21.75Q1.35-24 2.1-25.75 2.85-27.5 4.25-28.7L4.25-28.7 10.75-34.15Q12.1-35.25 14.1-35.88 16.1-36.5 18.65-36.5L18.65-36.5 32.65-36.5Q33.85-36.5 34.4-35.95 34.95-35.4 34.95-34.2L34.95-34.2 34.95-28.25Q34.95-27.6 34.77-27.15 34.6-26.7 34.25-26.4L34.25-26.4 29.75-22.65Q32.9-21.95 34.83-20.03 36.75-18.1 36.75-14.05L36.75-14.05 36.75-8.8Q36.75-6.55 36-4.8 35.25-3.05 33.8-1.85L33.8-1.85 27.35 3.55Q25.95 4.7 23.95 5.33 21.95 5.95 19.45 5.95L19.45 5.95ZM10.1 0L25.9 0Q30.7 0 33.48-2.27 36.25-4.55 36.25-8.8L36.25-8.8 36.25-14.05Q36.25-18.25 34.1-20.05 31.95-21.85 28.45-22.35L28.45-22.35 21-23.35Q20.35-23.4 20-23.85 19.65-24.3 19.65-24.95L19.65-24.95Q19.65-25.6 20-26.03 20.35-26.45 21-26.45L21-26.45 32.65-26.45Q33.6-26.45 34.02-26.88 34.45-27.3 34.45-28.25L34.45-28.25 34.45-34.2Q34.45-35.15 34.02-35.58 33.6-36 32.65-36L32.65-36 18.65-36Q13.8-36 11.05-33.73 8.3-31.45 8.3-27.2L8.3-27.2 8.3-21.95Q8.3-17.75 10.43-15.95 12.55-14.15 16.05-13.65L16.05-13.65 23.55-12.6Q24.2-12.55 24.53-12.15 24.85-11.75 24.85-10.9L24.85-10.9Q24.85-10.3 24.53-9.88 24.2-9.45 23.55-9.45L23.55-9.45 10.1-9.45Q9.15-9.45 8.72-9.03 8.3-8.6 8.3-7.65L8.3-7.65 8.3-1.8Q8.3-0.85 8.72-0.43 9.15 0 10.1 0L10.1 0ZM18.85-31.5L29.95-31.5 29.95-31 18.85-31Q16.75-31 15.5-29.85 14.25-28.7 14.25-26.95L14.25-26.95 14.25-22.85Q14.25-21.1 14.95-20.4 15.65-19.7 16.8-19.5L16.8-19.5 27.35-17.35Q28.85-17.05 29.83-16.05 30.8-15.05 30.8-12.45L30.8-12.45 30.8-9.55Q30.8-7.35 29.3-5.93 27.8-4.5 25.25-4.5L25.25-4.5 12.8-4.5 12.8-5 25.25-5Q27.55-5 28.93-6.28 30.3-7.55 30.3-9.55L30.3-9.55 30.3-12.45Q30.3-14.8 29.48-15.68 28.65-16.55 27.25-16.85L27.25-16.85 16.7-19Q15.4-19.25 14.58-20.03 13.75-20.8 13.75-22.85L13.75-22.85 13.75-26.95Q13.75-28.95 15.15-30.23 16.55-31.5 18.85-31.5L18.85-31.5ZM53.35 6.7L53.35 6.7Q48.8 6.7 45.87 5.68 42.95 4.65 41.27 2.95 39.6 1.25 38.97-0.95 38.35-3.15 38.35-5.5L38.35-5.5 38.35-12.1Q38.35-12.75 38.52-13.23 38.7-13.7 39-13.95L39-13.95 45.5-19.4Q45.75-19.6 46.15-19.73 46.55-19.85 47.1-19.85L47.1-19.85 54.35-19.85Q54.9-19.85 55.32-19.73 55.75-19.6 56.05-19.35L56.05-19.35 56.05-28.75Q56.05-29.4 56.22-29.85 56.4-30.3 56.75-30.6L56.75-30.6 63.2-36.05Q63.45-36.25 63.87-36.38 64.3-36.5 64.8-36.5L64.8-36.5 72.65-36.5Q73.85-36.5 74.4-35.95 74.95-35.4 74.95-34.2L74.95-34.2 74.95-9.45Q74.95-7.1 74.27-5.13 73.6-3.15 71.9-1.75L71.9-1.75 65.45 3.7Q63.75 5.1 60.85 5.9 57.95 6.7 53.35 6.7ZM74.45-9.45L74.45-9.45 74.45-34.2Q74.45-35.15 74.02-35.58 73.6-36 72.65-36L72.65-36 64.8-36Q63.85-36 63.42-35.58 63-35.15 63-34.2L63-34.2 63-11.45Q63-10.45 62.42-9.78 61.85-9.1 59.7-9.1L59.7-9.1Q57.4-9.1 56.77-9.78 56.15-10.45 56.15-11.45L56.15-11.45 56.15-17.55Q56.15-18.5 55.72-18.93 55.3-19.35 54.35-19.35L54.35-19.35 47.1-19.35Q46.15-19.35 45.72-18.93 45.3-18.5 45.3-17.55L45.3-17.55 45.3-9.45Q45.3-7.15 45.92-5.28 46.55-3.4 48.17-2.08 49.8-0.75 52.62 0 55.45 0.75 59.8 0.75L59.8 0.75Q64.2 0.75 67.05 0 69.9-0.75 71.52-2.08 73.15-3.4 73.8-5.28 74.45-7.15 74.45-9.45ZM68.45-10.65L68.45-31.5 68.95-31.5 68.95-10.65Q68.95-7.7 67.07-5.8 65.2-3.9 59.9-3.9L59.9-3.9Q57.1-3.9 55.27-4.4 53.45-4.9 52.4-5.78 51.35-6.65 50.92-7.9 50.5-9.15 50.5-10.65L50.5-10.65 50.5-14.6 51-14.6 51-10.65Q51-7.8 52.87-6.1 54.75-4.4 59.9-4.4L59.9-4.4Q64.85-4.4 66.65-6.13 68.45-7.85 68.45-10.65L68.45-10.65ZM103.6 5.95L103.6 5.95 91.4 5.95Q84.85 5.95 81.72 2.55 78.6-0.85 78.6-6.25L78.6-6.25 78.6-20.3Q78.6-23.05 79.4-25.08 80.2-27.1 81.75-28.45L81.75-28.45 88.25-33.9Q89.8-35.2 92.2-35.85 94.6-36.5 97.85-36.5L97.85-36.5 110.05-36.5Q111.25-36.5 111.8-35.95 112.35-35.4 112.35-34.2L112.35-34.2 112.35-28.15Q112.35-27.5 112.17-27.05 112-26.6 111.65-26.3L111.65-26.3 105.15-20.9Q104.95-20.7 104.52-20.55 104.1-20.4 103.6-20.4L103.6-20.4 97.45-20.4 97.45-11.95Q97.45-10.9 98.1-10.48 98.75-10.05 100-10.05L100-10.05 110.05-10.05Q111.25-10.05 111.8-9.5 112.35-8.95 112.35-7.75L112.35-7.75 112.35-1.8Q112.35-1.15 112.17-0.7 112-0.25 111.65 0.05L111.65 0.05 105.15 5.45Q104.95 5.65 104.52 5.8 104.1 5.95 103.6 5.95ZM97.85 0L110.05 0Q111 0 111.42-0.43 111.85-0.85 111.85-1.8L111.85-1.8 111.85-7.75Q111.85-8.7 111.42-9.13 111-9.55 110.05-9.55L110.05-9.55 100-9.55Q98.45-9.55 97.7-10.13 96.95-10.7 96.95-11.95L96.95-11.95 96.95-23.85Q96.95-25.1 97.7-25.73 98.45-26.35 100-26.35L100-26.35 110.05-26.35Q111-26.35 111.42-26.78 111.85-27.2 111.85-28.15L111.85-28.15 111.85-34.2Q111.85-35.15 111.42-35.58 111-36 110.05-36L110.05-36 97.85-36Q91.6-36 88.57-33.48 85.55-30.95 85.55-25.75L85.55-25.75 85.55-10.2Q85.55-5 88.57-2.5 91.6 0 97.85 0L97.85 0ZM98.95-5L107.3-5 107.3-4.5 98.95-4.5Q94.1-4.5 92.52-6 90.95-7.5 90.95-10.95L90.95-10.95 90.95-24.95Q90.95-28.5 92.55-30 94.15-31.5 98.95-31.5L98.95-31.5 107.3-31.5 107.3-31 98.95-31Q94.55-31 93-29.63 91.45-28.25 91.45-24.95L91.45-24.95 91.45-10.95Q91.45-7.7 92.95-6.35 94.45-5 98.95-5L98.95-5Z" opacity="1" transform="matrix(1,0,0,1,0,0)" fill="#ed1703" class="undefined-text-0" data-fill-palette-color="quaternary" id="text-0"></path></svg></g></svg></g></svg></g></svg></g><g transform="matrix(1,0,0,1,68.62862507404157,0)"><svg viewBox="0 0 75.90119107907398 114.64928397765968" height="114.64928397765968" width="75.90119107907398"><g><svg xmlns="http://www.w3.org/2000/svg" xmlns:xlink="http://www.w3.org/1999/xlink" version="1.1" x="0" y="0" viewBox="24.761856079101562 5 59.5826416015625 90" enable-background="new 0 0 100 100" xml:space="preserve" height="114.64928397765968" width="75.90119107907398" class="icon-icon-0" data-fill-palette-color="quaternary" id="icon-0"><g fill="#ed1703" data-fill-palette-color="quaternary"><path d="M73.76 35.603C86.875 48 91.5 66.25 65.633 82.379c3.64-4.928 5.654-9.794 6.096-14.669 0.951-10.516-5.606-19.072-12.835-26.752C48.298 29.7 47.51 18.84 56.413 6.782 54.578 22.641 64.6 26.944 73.76 35.603zM45.288 93.716c6.184-13.053 7.276-20.302-8.197-34.939-4.204-3.977-7.451-8.029-9.71-12.086-2.881 6.435-5.164 20.081 3.244 27.935C36.312 79.938 44.125 83.125 45.288 93.716zM56.709 43.014C48.183 33.954 41.999 21.253 54 5 21.497 17.692 19.625 38.125 39.151 56.597 55.603 72.158 54.75 80.75 48 95 79.875 71.5 68.709 55.764 56.709 43.014z" fill="#ed1703" data-fill-palette-color="quaternary"></path></g><g display="none" fill="#ed1703" data-fill-palette-color="quaternary"><path display="inline" d="M54 5C16.75 17.5 14.875 56.5 26.75 70.762c10.558 12.68 15.407 7.949 19.675 20.824" fill="#ed1703" data-fill-palette-color="quaternary"></path><line display="inline" x1="56.988" y1="5.261" x2="45.528" y2="136.262" fill="#ed1703" data-fill-palette-color="quaternary"></line><line display="inline" x1="54.131" y1="3.502" x2="42.67" y2="134.502" fill="#ed1703" data-fill-palette-color="quaternary"></line><path display="inline" d="M42.875 76" fill="#ed1703" data-fill-palette-color="quaternary"></path></g></svg></g></svg></g><g></g></svg></g></svg></g></svg></g></svg></g><defs></defs></svg><rect width="333.90454557049503" height="333.90454557049503" fill="none" stroke="none" visibility="hidden"></rect></g></svg></g></svg>